#!OML:ASF F:\VICON\USERDATA\INSTALL\rory3\rory3.ASF
:FULLY-SPECIFIED
:DEGREES
118
root 3.94627 17.5386 4.07021 21.7772 -15.578 -0.265636
lowerback -12.4439 4.04255 2.93823
upperback -13.5756 5.06652 -0.320344
thorax -7.24961 2.24149 -1.65746
lowerneck -2.60302 17.2312 13.768
upperneck 11.8152 21.5862 6.05919
head 4.80373 11.4793 1.09178
rclavicle -3.42904e-014 1.47101e-014
rhumerus -0.593724 -26.2907 14.2404
rradius 121.009
rwrist -62.3967
rhand -5.84169 -48.1949
rfingers 7.12502
rthumb 19.9845 -77.1872
lclavicle -3.42904e-014 1.47101e-014
lhumerus 30.2345 25.2738 -21.36
lradius 32.8985
lwrist 37.1391
lhand -27.0146 -19.6745
lfingers 7.12502
lthumb -0.434154 10.3048
rfemur -1.58997 3.48567 -6.19589
rtibia -3.49861e-014
rfoot -31.0517 -22.8557
rtoes 53.5351
lfemur -22.9919 0.226295 -28.543
ltibia 16.3026
lfoot -13.4119 9.3797
ltoes 9.66813
119
root 3.94912 17.5395 4.06469 21.7917 -15.4183 -0.326286
lowerback -12.3677 3.99273 3.04684
upperback -13.6216 4.9988 -0.293909
thorax -7.34132 2.19703 -1.70133
lowerneck -2.64344 17.1916 13.6443
upperneck 12.1793 21.4986 6.25661
head 4.88947 11.46 1.17725
rclavicle 1.26228e-014 1.27222e-014
rhumerus -0.378486 -26.1785 13.9409
rradius 121.009
rwrist -62.2217
rhand -5.99576 -48.0133
rfingers 7.12502
rthumb 19.8364 -77.0211
lclavicle 1.26228e-014 1.27222e-014
lhumerus 30.4056 25.4795 -20.9909
lradius 32.8011
lwrist 36.63
lhand -26.6703 -19.51
lfingers 7.12502
lthumb -0.101643 10.4698
rfemur -1.55481 3.37521 -6.05251
rtibia -3.18055e-015
rfoot -30.575 -23.5504
rtoes 53.2492
lfemur -23.0905 0.207447 -28.4487
ltibia 16.4521
lfoot -13.4882 9.23071
ltoes 10.0133
120
root 3.95305 17.54 4.0588 21.7594 -15.2843 -0.351107
lowerback -12.1918 3.93949 3.13787
upperback -13.7 4.93261 -0.281568
thorax -7.52469 2.1515 -1.7585
lowerneck -2.55174 17.1293 13.6091
upperneck 12.4255 21.4158 6.32432
head 4.94069 11.4338 1.19931
rclavicle -1.63997e-014 2.38542e-015
rhumerus -0.156774 -26.0426 13.6741
rradius 121.058
rwrist -62.124
rhand -6.51641 -48.0658
rfingers 7.12502
rthumb 19.3359 -77.1245
lclavicle -1.63997e-014 2.38542e-015
lhumerus 30.8507 26.0389 -20.214
lradius 32.5447
lwrist 35.7017
lhand -25.83 -19.3472
lfingers 7.12502
lthumb 0.709916 10.6313
rfemur -1.48081 3.28854 -5.97282
rtibia -1.90833e-014
rfoot -29.0578 -25.3534
rtoes 52.295
lfemur -23.1595 0.176361 -28.404
ltibia 16.6112
lfoot -13.4548 9.15148
ltoes 9.82042
121
root 3.95656 17.5386 4.05039 21.7319 -15.2368 -0.356199
lowerback -12.0462 3.9076 3.17365
upperback -13.7223 4.89576 -0.278434
thorax -7.62952 2.12735 -1.78821
lowerneck -2.43848 17.0613 13.5707
upperneck 12.4041 21.3571 6.24617
head 4.91861 11.3984 1.16442
rclavicle 7.04692e-014 1.90833e-014
rhumerus -0.135298 -25.9727 13.6504
rradius 121.183
rwrist -62.2587
rhand -7.12079 -48.1706
rfingers 7.12502
rthumb 18.7546 -77.2865
lclavicle 7.04692e-014 1.90833e-014
lhumerus 31.1326 26.4885 -19.6773
lradius 32.354
lwrist 35.0518
lhand -25.6133 -19.5849
lfingers 7.12502
lthumb 0.919245 10.3929
rfemur -1.42784 3.26335 -5.94681
rtibia -9.54166e-015
rfoot -30.1951 -23.9073
rtoes 52.9438
lfemur -23.2116 0.194132 -28.4069
ltibia 16.7128
lfoot -13.398 9.1204
ltoes 9.45026
122
root 3.95747 17.5364 4.04115 21.689 -15.2651 -0.347025
lowerback -11.9596 3.90472 3.1275
upperback -13.6942 4.89871 -0.28116
thorax -7.64771 2.13276 -1.77027
lowerneck -2.34858 16.992 13.5374
upperneck 12.2776 21.3029 6.11095
head 4.8733 11.3575 1.10937
rclavicle -3.97569e-015 -2.78299e-015
rhumerus -0.229486 -25.8573 13.7243
rradius 121.322
rwrist -62.446
rhand -7.72008 -48.0646
rfingers 7.12502
rthumb 18.1782 -77.2352
lclavicle -3.97569e-015 -2.78299e-015
lhumerus 31.0947 26.5716 -19.6361
lradius 32.3625
lwrist 34.9464
lhand -26.2263 -19.7777
lfingers 7.12502
lthumb 0.327191 10.2018
rfemur -1.41961 3.3027 -5.95279
rtibia 1.59028e-014
rfoot -31.5843 -22.0135
rtoes 53.727
lfemur -23.2263 0.275629 -28.4388
ltibia 16.7626
lfoot -13.4796 9.08929
ltoes 9.57569
123
root 3.95718 17.5378 4.02963 21.6632 -15.3094 -0.311434
lowerback -11.9287 3.91263 3.0313
upperback -13.6566 4.91524 -0.306728
thorax -7.62522 2.14929 -1.74389
lowerneck -2.38452 16.9632 13.5316
upperneck 12.3376 21.2574 6.09753
head 4.89777 11.3373 1.10979
rclavicle 8.64713e-015 1.47101e-014
rhumerus -0.170361 -25.792 13.5809
rradius 121.314
rwrist -62.3719
rhand -8.13452 -47.8813
rfingers 7.12502
rthumb 17.7794 -77.0885
lclavicle 8.64713e-015 1.47101e-014
lhumerus 30.898 26.4581 -19.8891
lradius 32.5153
lwrist 35.3309
lhand -26.5139 -19.7223
lfingers 7.12502
lthumb 0.0494458 10.2575
rfemur -1.47439 3.33657 -5.98573
rtibia -4.45278e-014
rfoot -31.6005 -22.1032
rtoes 53.7098
lfemur -23.2711 0.313756 -28.4774
ltibia 16.793
lfoot -13.4895 9.08103
ltoes 9.714
124
root 3.95754 17.5407 4.01641 21.6823 -15.324 -0.297563
lowerback -11.8872 3.90387 2.96051
upperback -13.6547 4.91003 -0.308294
thorax -7.651 2.15238 -1.7098
lowerneck -2.43903 16.9531 13.4625
upperneck 12.6052 21.2136 6.22847
head 4.96948 11.333 1.17091
rclavicle 1.86858e-014 2.38542e-015
rhumerus 0.137683 -25.9124 13.224
rradius 121.145
rwrist -62.2904
rhand -8.05039 -47.7743
rfingers 7.12502
rthumb 17.8604 -76.9741
lclavicle 1.86858e-014 2.38542e-015
lhumerus 30.6317 26.1685 -20.2669
lradius 32.7061
lwrist 35.9492
lhand -26.9125 -19.717
lfingers 7.12502
lthumb -0.335593 10.2625
rfemur -1.53985 3.33564 -5.98905
rtibia 1.90833e-014
rfoot -32.4112 -21.1707
rtoes 54.0856
lfemur -23.3446 0.26621 -28.4629
ltibia 16.7677
lfoot -13.144 9.12319
ltoes 9.02817
125
root 3.9594 17.5437 4.00492 21.7033 -15.3146 -0.367112
lowerback -11.8123 3.88985 2.99682
upperback -13.6583 4.89405 -0.279816
thorax -7.69712 2.14162 -1.70595
lowerneck -2.37593 16.9118 13.4574
upperneck 12.852 21.153 6.27291
head 5.03189 11.3169 1.18845
rclavicle -2.13694e-014 -1.78906e-014
rhumerus 0.349774 -26.1222 13.0413
rradius 121.033
rwrist -62.4535
rhand -7.57305 -47.6483
rfingers 7.12502
rthumb 18.3196 -76.8057
lclavicle -2.13694e-014 -1.78906e-014
lhumerus 30.4946 25.9872 -20.4214
lradius 32.8493
lwrist 36.3759
lhand -27.686 -19.794
lfingers 7.12502
lthumb -1.08265 10.183
rfemur -1.59059 3.35141 -5.89518
rtibia -2.54444e-014
rfoot -33.1717 -20.3246
rtoes 54.3969
lfemur -23.3555 0.203512 -28.3588
ltibia 16.6681
lfoot -13.2414 9.17626
ltoes 9.45696
